<svg width="32" height="32" viewBox="0 0 22 22" fill="none" xmlns="http://www.w3.org/2000/svg">
<path d="M15.2678 17.1716L14.4198 17.7016H14.4198L15.2678 17.1716ZM6.73223 17.1716L7.58023 17.7016L6.73223 17.1716ZM20 11C20 15.9706 15.9706 20 11 20V22C17.0751 22 22 17.0751 22 11H20ZM11 20C6.02944 20 2 15.9706 2 11H0C0 17.0751 4.92487 22 11 22V20ZM2 11C2 6.02944 6.02944 2 11 2V0C4.92487 0 0 4.92487 0 11H2ZM11 2C15.9706 2 20 6.02944 20 11H22C22 4.92487 17.0751 0 11 0V2ZM17 20C17 18.7894 16.7022 17.5798 16.1158 16.6416L14.4198 17.7016C14.771 18.2636 15 19.0889 15 20H17ZM16.1158 16.6416C15.5327 15.7086 14.6198 15 13.5 15V17C13.7063 17 14.0652 17.1342 14.4198 17.7016L16.1158 16.6416ZM13.5 15H8.5V17H13.5V15ZM8.5 15C7.3802 15 6.46734 15.7086 5.88423 16.6416L7.58023 17.7016C7.93481 17.1342 8.29371 17 8.5 17V15ZM5.88423 16.6416C5.29783 17.5798 5 18.7894 5 20H7C7 19.0889 7.22895 18.2636 7.58023 17.7016L5.88423 16.6416ZM12.5791 9.52632C12.5791 10.3693 11.8957 11.0526 11.0527 11.0526V13.0526C13.0003 13.0526 14.5791 11.4738 14.5791 9.52632H12.5791ZM11.0527 11.0526C10.2098 11.0526 9.52643 10.3693 9.52643 9.52632H7.52643C7.52643 11.4738 9.10521 13.0526 11.0527 13.0526V11.0526ZM9.52643 9.52632C9.52643 8.68335 10.2098 8 11.0527 8V6C9.10521 6 7.52643 7.57878 7.52643 9.52632H9.52643ZM11.0527 8C11.8957 8 12.5791 8.68335 12.5791 9.52632H14.5791C14.5791 7.57878 13.0003 6 11.0527 6V8Z"></path>
</svg>